<?xml version="1.0" standalone="no"?>
<svg xmlns="http://www.w3.org/2000/svg" viewBox="0 0 154.665 36" width="154.665" height="36"><g fill="#16d29d" color="#16d29d" transform="translate(0 4) scale(0.5384616)"><svg width="52.0" height="52.0" x="0.0" y="0.0" viewBox="0 0 52 52"><path fill="currentColor" fill-rule="evenodd" d="M48.231 30.94l-.26 1.04c0 .173-.087.173-.087.173v-.173c.867-7.973-10.4-12.566-22.966-12.566-2.514 0-5.2.173-7.714.606-3.986.607-7.02 1.56-9.186 2.6.26 2.774 2.773 3.12 4.333 3.12h.52c2.253-.086 5.027-.52 6.413-.693.174 0 .434-.087.52-.087 1.56-.173 3.207-.346 4.767-.346 7.02 0 14.04 1.905 17.767 6.153 3.639 4.16 2.426 9.013-2.514 13.26-4.506 3.813-10.314 4.592-13.347 4.767h-.693c-3.293 0-6.153-.954-6.673-1.214-4.853-1.906-4.16-5.113-1.473-6.846 2.166-1.387 4.853-1.994 7.366-1.994 4.506 0 8.494 1.907 8.06 4.42-.26 1.734-2.34 2.687-3.987 2.687-.433 0-.867-.087-1.213-.261l-.087-.086c-.086-.173-.173-.26-.606-.433a5.446 5.446 0 0 0-1.647-.26c-1.56 0-3.206.607-3.64 1.473-.26.606.26 1.04.954 1.3.78.26 1.646.347 2.426.347.954 0 1.734-.087 2.167-.174 5.027-.867 9.446-3.206 11.267-5.286 1.473-1.733 1.126-4.16-2.947-6.067-3.467-1.733-7.887-2.08-11.18-2.08-2.167 0-3.813.174-4.42.26-.433.087-3.207.434-6.24.434h-.693c-1.04 0-1.994-.087-3.034-.261-2.773-.346-5.98-2.686-6.933-6.067a12.367 12.367 0 0 1-.173-.952v-.52c-.087-2.774-.26-6.674 1.646-9.36 3.814-5.287 11.614-7.627 19.587-7.627 11.093 0 22.62 4.68 24.18 12.827.086 0 .693 3.726-.26 7.886M23.791 3.207a22.726 22.726 0 0 1 20.02 8.493c-5.113-3.033-11.613-4.853-18.633-4.68-6.327.087-12.134 1.734-16.987 4.42 3.813-4.506 9.273-7.626 15.6-8.233m28.08 20.28c-.52-5.027-2.427-9.793-5.633-13.78A25.978 25.978 0 0 0 25.958 0c-.867 0-1.647 0-2.514.087-6.846.693-13.086 3.987-17.506 9.36C1.518 14.82-.562 21.58.13 28.427 1.344 41.947 12.698 52 25.958 52c.866 0 1.646 0 2.513-.086 6.933-.695 13.173-3.987 17.593-9.361a26.535 26.535 0 0 0 5.807-19.066"></path></svg></g><path fill="#0a1910" fill-rule="nonzero" d="M13.97 8.89L14.00 8.92Q13.78 9.32 13.78 10.83L13.78 10.83L13.78 14.46Q13.78 16.11 12.07 17.33L12.07 17.33Q10.30 18.61 7.73 18.61L7.73 18.61Q4.17 18.61 2.05 16.37L2.05 16.37Q0 14.24 0 10.93L0 10.93Q0 7.42 2.09 5.07L2.09 5.07Q4.42 2.44 8.51 2.44L8.51 2.44Q11.24 2.44 12.83 3.49L12.83 3.49L12.64 6.95L12.55 6.97Q12.14 6.26 10.93 5.80L10.93 5.80Q9.79 5.37 8.53 5.37Q7.27 5.37 6.32 5.77Q5.38 6.16 4.72 6.90L4.72 6.90Q3.34 8.41 3.34 10.90L3.34 10.90Q3.34 13.07 4.56 14.38L4.56 14.38Q5.78 15.68 7.70 15.68L7.70 15.68Q9.82 15.68 10.56 14.58L10.56 14.58Q10.79 14.23 10.79 13.78L10.79 13.78L10.79 11.84L9.28 11.84Q8.06 11.84 7.96 12.05L7.96 12.05L7.92 12.04L7.82 8.98Q8.14 9.07 10.48 9.07L10.48 9.07L11.86 9.07Q13.15 9.07 13.97 8.89L13.97 8.89ZM19.11 4.48L16.48 2.58Q17.41 1.11 18.43 0L18.43 0L20.95 1.98Q20.45 2.60 20.02 3.20L20.02 3.20Q20.02 3.20 19.11 4.48L19.11 4.48ZM19.56 6.07L19.56 17.00Q19.56 18.01 19.61 18.32L19.61 18.32L16.63 18.32L16.63 6.07L19.56 6.07ZM26.03 10.08L26.03 14.93Q26.03 17.57 26.12 18.32L26.12 18.32L23.06 18.32L23.06 6.07L26.03 6.07L26.03 7.13Q27.63 5.84 29.32 5.84L29.32 5.84Q31.31 5.84 32.21 7.56L32.21 7.56Q33.12 6.63 33.71 6.34L33.71 6.34Q34.71 5.84 35.71 5.84Q36.71 5.84 37.42 6.18Q38.12 6.52 38.58 7.14L38.58 7.14Q39.50 8.39 39.50 10.58L39.50 10.58L39.50 15.25Q39.50 17.23 39.56 17.63Q39.62 18.02 39.72 18.14Q39.82 18.26 39.89 18.35L39.89 18.35L39.87 18.40Q38.93 18.32 38.48 18.32L38.48 18.32L37.61 18.32Q37.17 18.32 36.54 18.35L36.54 18.35L36.54 12.01Q36.54 9.27 35.70 8.75L35.70 8.75Q35.41 8.59 35.03 8.59Q34.65 8.59 34.36 8.68Q34.07 8.77 33.81 8.96L33.81 8.96Q33.38 9.28 32.82 10.21L32.82 10.21Q32.84 10.30 32.84 10.39Q32.84 10.49 32.84 13.49Q32.84 16.49 32.98 18.32L32.98 18.32Q31.98 18.32 31.28 18.32Q30.59 18.32 29.95 18.35L29.95 18.35L29.95 12Q29.95 10.09 29.72 9.52Q29.50 8.94 29.24 8.77Q28.98 8.59 28.61 8.59L28.61 8.59Q27.06 8.59 26.03 10.08L26.03 10.08ZM46.07 10.08L46.07 14.93Q46.07 17.57 46.16 18.32L46.16 18.32L43.10 18.32L43.10 6.07L46.07 6.07L46.07 7.13Q47.67 5.84 49.36 5.84L49.36 5.84Q51.35 5.84 52.25 7.56L52.25 7.56Q53.16 6.63 53.75 6.34L53.75 6.34Q54.75 5.84 55.75 5.84Q56.75 5.84 57.46 6.18Q58.16 6.52 58.62 7.14L58.62 7.14Q59.54 8.39 59.54 10.58L59.54 10.58L59.54 15.25Q59.54 17.23 59.60 17.63Q59.66 18.02 59.76 18.14Q59.86 18.26 59.93 18.35L59.93 18.35L59.91 18.40Q58.97 18.32 58.52 18.32L58.52 18.32L57.64 18.32Q57.21 18.32 56.58 18.35L56.58 18.35L56.58 12.01Q56.58 9.27 55.73 8.75L55.73 8.75Q55.45 8.59 55.07 8.59Q54.69 8.59 54.40 8.68Q54.11 8.77 53.85 8.96L53.85 8.96Q53.41 9.28 52.86 10.21L52.86 10.21Q52.88 10.30 52.88 10.39Q52.88 10.49 52.88 13.49Q52.88 16.49 53.02 18.32L53.02 18.32Q52.02 18.32 51.32 18.32Q50.63 18.32 49.99 18.35L49.99 18.35L49.99 12Q49.99 10.09 49.76 9.52Q49.54 8.94 49.28 8.77Q49.02 8.59 48.64 8.59L48.64 8.59Q47.10 8.59 46.07 10.08L46.07 10.08ZM62.36 12.29L62.36 12.29Q62.36 10.92 62.82 9.75Q63.29 8.58 64.15 7.70L64.15 7.70Q65.98 5.84 68.93 5.84L68.93 5.84Q71.43 5.84 72.94 7.49L72.94 7.49Q74.43 9.08 74.43 11.50L74.43 11.50Q74.43 12.42 74.29 12.76L74.29 12.76Q73.11 13.09 69.52 13.09L69.52 13.09L65.39 13.09Q65.70 14.34 66.81 15.04Q67.92 15.74 69.70 15.74L69.70 15.74Q71.57 15.74 72.90 15.07L72.90 15.07Q73.25 14.89 73.43 14.74L73.43 14.74Q73.41 15.23 73.37 15.75L73.37 15.75L73.24 17.58Q72.35 18.19 70.36 18.42L70.36 18.42Q69.77 18.49 69.23 18.49L69.23 18.49Q66.26 18.49 64.31 16.76L64.31 16.76Q62.36 15.01 62.36 12.29ZM71.31 10.82L71.31 10.82Q70.83 8.30 68.57 8.30L68.57 8.30Q66.79 8.30 65.86 9.83L65.86 9.83Q65.58 10.30 65.43 10.86L65.43 10.86Q65.71 10.88 66.12 10.89L66.12 10.89L66.98 10.89Q67.42 10.90 67.82 10.90L67.82 10.90L68.48 10.90Q69.08 10.90 69.66 10.89L69.66 10.89L70.62 10.85Q71.00 10.84 71.31 10.82ZM79.50 14.94L78.40 18.41Q77.39 18.32 76.04 18.32L76.04 18.32L75.12 18.32L80.21 4.03Q80.55 3.07 80.55 2.91Q80.55 2.75 80.54 2.72L80.54 2.72L80.55 2.70Q81.32 2.73 82.17 2.73L82.17 2.73Q82.88 2.73 83.86 2.71L83.86 2.71L83.87 2.73Q83.85 2.78 83.85 2.86L83.85 2.86Q83.85 3.08 84.20 4.04L84.20 4.04L89.40 18.35Q89.17 18.34 88.85 18.34L88.85 18.34Q88.85 18.34 88.24 18.32L88.24 18.32Q87.95 18.32 87.71 18.32L87.71 18.32L85.90 18.32L84.80 14.94L79.50 14.94ZM80.39 12.13L83.88 12.13L82.11 6.68L80.39 12.13ZM94.93 5.50L94.93 8.06Q96.09 7.82 97.49 7.82Q98.88 7.82 100.06 8.20Q101.24 8.59 102.02 9.25L102.02 9.25Q103.62 10.56 103.62 12.62L103.62 12.62Q103.62 15.25 101.67 16.93L101.67 16.93Q99.71 18.61 96.74 18.61L96.74 18.61Q93.40 18.61 91.45 16.99L91.45 16.99L91.32 13.68L91.44 13.59Q93.11 15.88 96.79 15.88L96.79 15.88Q98.45 15.88 99.45 15.11L99.45 15.11Q100.44 14.33 100.44 13.14L100.44 13.14Q100.44 11.18 98.41 10.51L98.41 10.51Q97.73 10.29 96.98 10.29Q96.23 10.29 95.58 10.35Q94.93 10.42 94.31 10.54L94.31 10.54Q93.02 10.78 92.18 11.24L92.18 11.24L92.18 2.73L99.53 2.73Q101.78 2.73 102.19 2.36L102.19 2.36L102.23 2.39L101.95 5.25Q101.44 5.50 99.57 5.50L99.57 5.50L94.93 5.50ZM115.03 18.41L112.31 12.26Q111.96 12.28 111.56 12.28Q111.16 12.28 110.38 12.22L110.38 12.22L110.38 18.32L107.27 18.32L107.27 2.65Q108.91 2.44 111.30 2.44L111.30 2.44Q114.56 2.44 116.16 3.64Q117.76 4.84 117.76 7.35L117.76 7.35Q117.76 9.29 116.30 10.68L116.30 10.68Q115.82 11.12 115.20 11.45L115.20 11.45L117.59 16.49Q118.29 18.05 118.66 18.34L118.66 18.34L118.61 18.40Q117.47 18.21 115.03 18.41L115.03 18.41ZM111.53 5.20L111.53 5.20Q110.93 5.20 110.38 5.26L110.38 5.26L110.38 9.74Q110.95 9.82 111.73 9.82Q112.50 9.82 113.03 9.69Q113.55 9.55 113.94 9.27L113.94 9.27Q114.77 8.65 114.77 7.41Q114.77 6.16 113.91 5.66L113.91 5.66Q113.10 5.20 111.53 5.20Z" transform="translate(36, 8.696)"></path></svg>